<?xml version="1.0" encoding="UTF-8"?>
<svg version="1.1" xmlns="http://www.w3.org/2000/svg" width="300" height="300">
<path d="M0 0 C99 0 198 0 300 0 C300 99 300 198 300 300 C201 300 102 300 0 300 C0 201 0 102 0 0 Z " fill="#FDFDFE" transform="translate(0,0)"/>
<path d="M0 0 C1.56047445 0.00015913 3.12095416 0.00585397 4.68139648 0.01586914 C5.5012352 0.01728409 6.32107391 0.01869904 7.16575623 0.02015686 C9.79470406 0.0257725 12.42356797 0.0383276 15.05249023 0.05102539 C16.8304838 0.05603838 18.60847869 0.06060163 20.38647461 0.06469727 C24.75434569 0.07574701 29.12215371 0.09302208 33.48999023 0.11352539 C33.81999023 0.77352539 34.14999023 1.43352539 34.48999023 2.11352539 C36.42883164 2.99995179 36.42883164 2.99995179 38.80249023 3.80102539 C48.3331358 7.49295409 56.28079385 11.93315556 62.48999023 20.11352539 C63.35624023 20.95915039 64.22249023 21.80477539 65.11499023 22.67602539 C71.65223825 29.38530624 75.69759362 37.80286512 76.48999023 47.11352539 C77.61147461 46.95239258 78.73295898 46.79125977 79.88842773 46.62524414 C84.63824656 46.03439261 89.33298078 45.92982064 94.11499023 45.92602539 C94.93483398 45.9137793 95.75467773 45.9015332 96.59936523 45.88891602 C101.31449747 45.87754512 105.05895331 46.31196778 109.48999023 48.11352539 C111.06780273 48.70133789 111.06780273 48.70133789 112.67749023 49.30102539 C121.98036473 53.36196838 130.79504443 59.51286507 136.98999023 67.55102539 C137.72217773 68.47786133 138.45436523 69.40469727 139.20874023 70.35961914 C145.8600801 80.45171163 147.27160313 90.63274119 147.05249023 102.48852539 C147.06344727 103.80208008 147.0744043 105.11563477 147.08569336 106.46899414 C147.03168784 113.57612073 146.73330492 118.33767375 142.48999023 124.11352539 C141.72958451 126.38338433 141.72958451 126.38338433 141.48999023 128.11352539 C140.82999023 128.11352539 140.16999023 128.11352539 139.48999023 128.11352539 C139.23733398 128.84571289 138.98467773 129.57790039 138.72436523 130.33227539 C133.79000326 141.45020491 123.35739333 147.44109633 112.73217773 151.97680664 C109.48999023 153.11352539 109.48999023 153.11352539 105.48999023 153.11352539 C105.48999023 153.77352539 105.48999023 154.43352539 105.48999023 155.11352539 C84.03632307 155.23048962 62.58270872 155.31857765 41.12878704 155.37258625 C31.16664132 155.39833345 21.20469408 155.43341722 11.24267578 155.49072266 C2.55659387 155.54066446 -6.12934425 155.57284171 -14.81556576 155.58396786 C-19.41204365 155.59046842 -24.00811028 155.60567341 -28.60445595 155.64217567 C-32.93751786 155.67630577 -37.27000208 155.68654433 -41.60318565 155.6790638 C-43.18696617 155.68043079 -44.77076754 155.69026172 -46.35443115 155.70955276 C-59.50233596 155.86175233 -70.31204954 152.79364968 -80.51000977 144.11352539 C-80.84000977 143.12352539 -81.17000977 142.13352539 -81.51000977 141.11352539 C-82.50000977 140.78352539 -83.49000977 140.45352539 -84.51000977 140.11352539 C-92.4212884 131.46056438 -95.19414247 119.71848555 -94.86157227 108.19946289 C-93.88103334 99.59251009 -91.28162805 91.64456713 -85.51000977 85.11352539 C-84.85000977 85.11352539 -84.19000977 85.11352539 -83.51000977 85.11352539 C-83.26250977 84.53602539 -83.01500977 83.95852539 -82.76000977 83.36352539 C-79.29239026 77.12181029 -72.66868284 73.02750195 -66.07641602 70.64086914 C-60.3456597 69.46331647 -54.33257794 69.90882573 -48.51000977 70.11352539 C-48.5622168 68.39069336 -48.5622168 68.39069336 -48.61547852 66.63305664 C-48.85555929 55.23106662 -48.90491799 44.01783446 -42.51000977 34.11352539 C-41.97762695 33.23954102 -41.44524414 32.36555664 -40.89672852 31.46508789 C-35.91250176 23.46740909 -31.55263927 17.18387877 -23.51000977 12.11352539 C-22.82938477 11.43290039 -22.14875977 10.75227539 -21.44750977 10.05102539 C-17.25135238 5.854868 -12.06954112 4.06080215 -6.61938477 1.98071289 C-1.95526062 0.06323963 -1.95526062 0.06323963 0 0 Z " fill="#026BB9" transform="translate(120.510009765625,17.886474609375)"/>
<path d="M0 0 C3.6392295 1.53768376 5.98007547 3.72097001 8.76855469 6.49389648 C9.22755661 6.94778748 9.68655853 7.40167847 10.1594696 7.86932373 C11.66879264 9.36479325 13.1706186 10.86752955 14.671875 12.37109375 C15.71968976 13.41502078 16.76772768 14.45872387 17.815979 15.50221252 C20.00818187 17.68696345 22.19648106 19.87553735 24.38232422 22.06665039 C27.18736149 24.8774973 30.003633 27.67678176 32.82313156 30.47311306 C34.98843577 32.62371062 37.1468002 34.78116818 39.30319977 36.94069099 C40.33910918 37.97608619 41.37739192 39.0091124 42.41805267 40.03973198 C43.86884482 41.4782303 45.30920495 42.92722702 46.74902344 44.37670898 C47.57190857 45.19896469 48.3947937 46.0212204 49.24261475 46.86839294 C51 49 51 49 51 52 C46.17619198 52.0246519 41.35242033 52.04283693 36.52856445 52.05493164 C34.88630536 52.05997174 33.24405077 52.06680378 31.60180664 52.07543945 C29.24624521 52.08751926 26.89074291 52.09323139 24.53515625 52.09765625 C23.79660904 52.10281754 23.05806183 52.10797882 22.2971344 52.11329651 C20.53101912 52.1134925 18.76502854 52.06194719 17 52 C15.00383446 50.00383446 15.59016573 46.18298037 15.4375 43.4375 C15.39431641 42.72658203 15.35113281 42.01566406 15.30664062 41.28320312 C15.20028223 39.52238088 15.09961154 37.7612168 15 36 C13.515 35.505 13.515 35.505 12 35 C10.28891311 33.37897032 8.62746694 31.70496537 7 30 C6.071875 29.113125 5.14375 28.22625 4.1875 27.3125 C2 25 2 25 2 23 C-1.69841329 25.01557126 -4.18633612 27.08275646 -6.875 30.3125 C-9.85558986 33.77582193 -12.90598569 36.777442 -16.421875 39.68359375 C-21.21951785 43.68558791 -25.18876636 48.46981602 -29.23046875 53.20703125 C-29.81441406 53.79871094 -30.39835937 54.39039063 -31 55 C-31.66 55 -32.32 55 -33 55 C-33.33 55.99 -33.66 56.98 -34 58 C-36.01786829 59.83869183 -38.13883789 61.49747019 -40.28515625 63.18359375 C-42.45765718 65.06842827 -42.45765718 65.06842827 -42 69 C-40.515 69.99 -40.515 69.99 -39 71 C-39 71.66 -39 72.32 -39 73 C-38.41089844 73.26167969 -37.82179688 73.52335937 -37.21484375 73.79296875 C-34.88214566 75.0642275 -33.39645632 76.40230531 -31.5625 78.3125 C-30.64791016 79.25609375 -30.64791016 79.25609375 -29.71484375 80.21875 C-29.14894531 80.8065625 -28.58304688 81.394375 -28 82 C-27.21625 82.763125 -26.4325 83.52625 -25.625 84.3125 C-23.1839258 86.81169501 -20.87701867 89.38409158 -18.5625 92 C-16.0800766 94.78294895 -13.66953063 97.42644591 -10.75 99.75 C-7.64853305 102.28756387 -5.41275191 104.80665189 -3 108 C-3 108.66 -3 109.32 -3 110 C0.33076242 110.39358216 1.61596536 110.29725447 4.31640625 108.20703125 C6.55827381 105.81700549 8.7905639 103.42005525 11 101 C11.825 100.236875 12.65 99.47375 13.5 98.6875 C15.66503362 94.80848144 15.63480325 91.03355908 15.82421875 86.64453125 C16 84 16 84 17 82 C28.22 82 39.44 82 51 82 C49.79889385 86.8044246 48.74247854 87.00601717 45 90 C44.03291565 91.24846765 43.09762154 92.52191781 42.1875 93.8125 C38.22656397 99.2906069 33.19450147 103.25335597 27.9375 107.4375 C24.88715856 110.09843615 22.40060719 112.9520333 19.78515625 116.02734375 C18.11776235 117.86986874 16.4176756 119.42553256 14.5 121 C11.10910823 123.78619549 8.31272151 126.92136316 5.48046875 130.265625 C4 132 4 132 2 134 C-2.63085954 133.48097778 -5.20490609 130.23817459 -8.3449707 127.09082031 C-8.97138962 126.47447723 -9.59780853 125.85813416 -10.24320984 125.22311401 C-12.31210163 123.18272764 -14.36948332 121.13119795 -16.42578125 119.078125 C-17.85713205 117.6564113 -19.28870964 116.23492589 -20.72050476 114.81365967 C-23.71919304 111.83293775 -26.71161005 108.84607464 -29.70043945 105.85546875 C-33.53682154 102.01878131 -37.39344582 98.20316586 -41.25568867 94.39253616 C-44.21781376 91.4637106 -47.16625971 88.52140809 -50.11098289 85.57509613 C-51.52759477 84.16203176 -52.94909066 82.75384657 -54.37545204 81.35062408 C-56.36546548 79.38990045 -58.33568485 77.41120512 -60.30200195 75.42675781 C-60.89776031 74.84785797 -61.49351868 74.26895813 -62.10733032 73.67251587 C-65.98360263 69.70444552 -65.98360263 69.70444552 -66.06204224 66.33460999 C-64.89369897 63.76632621 -63.70350697 62.20838477 -61.70532227 60.21948242 C-61.01112686 59.51913376 -60.31693146 58.8187851 -59.60169983 58.09721375 C-58.84755295 57.3574379 -58.09340607 56.61766205 -57.31640625 55.85546875 C-56.54570297 55.08568192 -55.77499969 54.31589508 -54.98094177 53.52278137 C-53.35228744 51.90016325 -51.71878087 50.28240293 -50.08081055 48.66918945 C-47.56501918 46.18998255 -45.06567287 43.69507058 -42.56835938 41.19726562 C-40.9853172 39.62405135 -39.40136371 38.05175343 -37.81640625 36.48046875 C-37.0642836 35.73057175 -36.31216095 34.98067474 -35.5372467 34.20805359 C-34.83989914 33.52346573 -34.14255157 32.83887787 -33.42407227 32.13354492 C-32.80975845 31.52685471 -32.19544464 30.92016449 -31.56251526 30.29508972 C-30 29 -30 29 -28 29 C-27.76925781 28.44183594 -27.53851563 27.88367188 -27.30078125 27.30859375 C-25.65466491 24.38710799 -23.58926868 22.39945334 -21.1875 20.0625 C-20.33542969 19.22847656 -19.48335937 18.39445312 -18.60546875 17.53515625 C-17.74566406 16.69855469 -16.88585937 15.86195312 -16 15 C-15.12988281 14.09121094 -14.25976562 13.18242188 -13.36328125 12.24609375 C-11 10 -11 10 -8 9 C-7.731875 8.4225 -7.46375 7.845 -7.1875 7.25 C-5.44866056 3.95535686 -2.92354664 2.28799302 0 0 Z " fill="#F1F7F9" transform="translate(140,31)"/>
<path d="M0 0 C0.66 0.33 1.32 0.66 2 1 C2.42651367 3.63623047 2.42651367 3.63623047 2.66796875 7.1171875 C2.75626953 8.36371094 2.84457031 9.61023438 2.93554688 10.89453125 C3.06026367 12.86486328 3.06026367 12.86486328 3.1875 14.875 C3.28224609 16.18082031 3.37699219 17.48664063 3.47460938 18.83203125 C4.13461899 28.59614302 4.13461899 28.59614302 3 32 C4.32064453 31.566875 4.32064453 31.566875 5.66796875 31.125 C6.82941406 30.75375 7.99085938 30.3825 9.1875 30 C10.33605469 29.62875 11.48460937 29.2575 12.66796875 28.875 C15.64320812 28.09369447 17.95283896 27.81636694 21 28 C19.61427659 33.95861065 17.12003307 39.20678836 14.51171875 44.7265625 C13.22063368 47.52224542 12.04692918 50.31656897 10.9375 53.1875 C8.95046419 58.29342746 6.52280481 63.14049893 4 68 C2.515 67.505 2.515 67.505 1 67 C0.93941406 65.68644531 0.87882813 64.37289062 0.81640625 63.01953125 C0.73196744 61.28384459 0.64732112 59.54816802 0.5625 57.8125 C0.52318359 56.94818359 0.48386719 56.08386719 0.44335938 55.19335938 C0.23652984 51.04085878 -0.00103531 47.05462138 -1 43 C-2.41655793 42.9727585 -3.83327045 42.95349533 -5.25 42.9375 C-6.03890625 42.92589844 -6.8278125 42.91429687 -7.640625 42.90234375 C-9.90691002 42.99614694 -11.8288895 43.36758937 -14 44 C-14.1953125 37.9453125 -14.1953125 37.9453125 -14 36 C-13.34 35.34 -12.68 34.68 -12 34 C-10.6138347 31.14613026 -9.98380705 28.85696228 -9.625 25.6875 C-8.97670781 21.86257606 -7.78502822 19.40619457 -5.9765625 16.04296875 C-4.99168198 13.98259869 -4.43721909 12.09832648 -3.9375 9.875 C-3.04737199 6.19580423 -1.81625178 3.30227597 0 0 Z " fill="#DDECF9" transform="translate(138,66)"/>
<path d="M0 0 C1.98 0 3.96 0 6 0 C6 3.63 6 7.26 6 11 C6.99 10.34 7.98 9.68 9 9 C12.8973724 8.49164708 14.50556726 8.67037817 17.8125 10.875 C21.16593765 14.13262514 21.22805204 16.22885402 21.375 20.8125 C21.35379713 25.23329845 21.33706987 26.54761676 18.625 30.1875 C14.560493 32.99394531 12.38337496 33.13585812 7.4375 33.125 C5.67212891 33.12886719 5.67212891 33.12886719 3.87109375 33.1328125 C1 33 1 33 0 32 C-0.0883967 29.6243148 -0.11530305 27.27791326 -0.09765625 24.90234375 C-0.0962413 24.19348526 -0.09482635 23.48462677 -0.09336853 22.75428772 C-0.08775443 20.48198288 -0.07519963 18.20977525 -0.0625 15.9375 C-0.05748681 14.40039204 -0.05292359 12.86328255 -0.04882812 11.32617188 C-0.03778042 7.55074358 -0.02050641 3.77538829 0 0 Z " fill="#1186FD" transform="translate(75,191)"/>
<path d="M0 0 C3.58552881 1.63687185 4.79315055 2.68972583 7 6 C7.68080368 11.04269701 7.98798471 16.23437793 5.125 20.625 C2.77553689 23.25087054 1.99369691 23.9037849 -1.4609375 24.23828125 C-9.36340942 24.43955064 -9.36340942 24.43955064 -12.625 22.1875 C-15.59157716 17.46794542 -15.77356648 12.41496538 -15 7 C-11.55164158 0.56649549 -6.96557129 -0.76206826 0 0 Z " fill="#141414" transform="translate(219,201)"/>
<path d="M0 0 C0.66 0.33 1.32 0.66 2 1 C2.42651367 3.63623047 2.42651367 3.63623047 2.66796875 7.1171875 C2.75626953 8.36371094 2.84457031 9.61023438 2.93554688 10.89453125 C3.01869141 12.20808594 3.10183594 13.52164063 3.1875 14.875 C3.28224609 16.18082031 3.37699219 17.48664063 3.47460938 18.83203125 C4.13461899 28.59614302 4.13461899 28.59614302 3 32 C3.99 32.33 4.98 32.66 6 33 C5.67 33.66 5.34 34.32 5 35 C7.31 35 9.62 35 12 35 C12 37.31 12 39.62 12 42 C11.34 42 10.68 42 10 42 C10 40.35 10 38.7 10 37 C8.49759766 37.433125 8.49759766 37.433125 6.96484375 37.875 C5.62252803 38.25047293 4.28007251 38.62544631 2.9375 39 C1.95233398 39.28617188 1.95233398 39.28617188 0.94726562 39.578125 C-3.4674018 40.79596429 -7.37941677 41.19227394 -12 41 C-11.85962479 39.18706911 -11.71255111 37.3746557 -11.5625 35.5625 C-11.48128906 34.55316406 -11.40007812 33.54382813 -11.31640625 32.50390625 C-11 30 -11 30 -10 29 C-9.896875 27.989375 -9.79375 26.97875 -9.6875 25.9375 C-8.9979201 21.98808786 -7.83947231 19.5074449 -5.9765625 16.04296875 C-4.99168198 13.98259869 -4.43721909 12.09832648 -3.9375 9.875 C-3.04737199 6.19580423 -1.81625178 3.30227597 0 0 Z " fill="#B5D8F5" transform="translate(138,66)"/>
<path d="M0 0 C2.64552802 1.96093963 4.56985193 4.02969247 6 7 C6 9.31 6 11.62 6 14 C0.72 14 -4.56 14 -10 14 C-9.01 15.65 -8.02 17.3 -7 19 C-4.26622386 19.60393692 -4.26622386 19.60393692 -1.3125 19.3125 C0.17830078 19.24482422 0.17830078 19.24482422 1.69921875 19.17578125 C2.45847656 19.11777344 3.21773437 19.05976563 4 19 C4 20.65 4 22.3 4 24 C-8.53104884 24.7630544 -8.53104884 24.7630544 -12.0078125 22.95703125 C-14.96098518 19.94196573 -15.96156036 17.45358775 -16.3125 13.3125 C-16.24259745 8.51543748 -14.84623557 5.84626428 -12 2 C-8.16389682 -0.38460468 -4.4281246 -0.69917757 0 0 Z " fill="#1085FD" transform="translate(116,200)"/>
<path d="M0 0 C4.57523032 0 8.52883735 0.0486888 13 1 C13.33 1.66 13.66 2.32 14 3 C14.66 2.01 15.32 1.02 16 0 C18.5 -0.3125 18.5 -0.3125 21 0 C23 2 23 2 23.22705078 4.24658203 C23.21657715 5.15778809 23.20610352 6.06899414 23.1953125 7.0078125 C23.18886719 7.99394531 23.18242187 8.98007813 23.17578125 9.99609375 C23.15902344 11.02863281 23.14226562 12.06117188 23.125 13.125 C23.11597656 14.16527344 23.10695313 15.20554688 23.09765625 16.27734375 C23.07403747 18.85179092 23.04110149 21.42578212 23 24 C21.68 24 20.36 24 19 24 C18.505 14.595 18.505 14.595 18 5 C14.3053724 8.6946276 14.46302328 11.26323832 14.3125 16.1875 C14.27833984 16.93708984 14.24417969 17.68667969 14.20898438 18.45898438 C14.12665706 20.30546838 14.06164719 22.15270994 14 24 C12.68 24 11.36 24 10 24 C10 17.73 10 11.46 10 5 C6.88214887 5.64644661 6.88214887 5.64644661 6 8 C5.7677354 10.71262116 5.58063765 13.40773126 5.4375 16.125 C5.39431641 16.87910156 5.35113281 17.63320312 5.30664062 18.41015625 C5.2005168 20.27321888 5.09974999 22.13658524 5 24 C3.35 24 1.7 24 0 24 C0 16.08 0 8.16 0 0 Z " fill="#151515" transform="translate(255,201)"/>
<path d="M0 0 C0.680625 -0.00257813 1.36125 -0.00515625 2.0625 -0.0078125 C4 0.125 4 0.125 7 1.125 C7 2.775 7 4.425 7 6.125 C3.04 6.125 -0.92 6.125 -5 6.125 C-2.82888643 11.57279262 -2.82888643 11.57279262 2 13.8125 C6.85301837 15.97801837 6.85301837 15.97801837 9 18.125 C9.56112224 25.08291583 9.56112224 25.08291583 7.6875 28.5625 C4.22196482 31.77132887 0.3562419 31.25920173 -4.125 31.25 C-6.01605469 31.25386719 -6.01605469 31.25386719 -7.9453125 31.2578125 C-11 31.125 -11 31.125 -12 30.125 C-12 28.475 -12 26.825 -12 25.125 C-7.38 25.125 -2.76 25.125 2 25.125 C1.67 23.475 1.34 21.825 1 20.125 C-0.95537057 18.76763371 -0.95537057 18.76763371 -3.375 18 C-6.58880426 16.81706879 -8.89265587 15.89712146 -11 13.125 C-11.77333333 6.165 -11.77333333 6.165 -9.1875 2.6875 C-6.13096606 0.50426147 -3.66586512 -0.01388585 0 0 Z " fill="#151515" transform="translate(164,193.875)"/>
<path d="M0 0 C1.98 0 3.96 0 6 0 C6.83986084 1.93467942 7.67168027 3.87285129 8.5 5.8125 C8.9640625 6.89144531 9.428125 7.97039062 9.90625 9.08203125 C11 12 11 12 11 15 C11.66 15 12.32 15 13 15 C13.19335938 14.25234375 13.38671875 13.5046875 13.5859375 12.734375 C13.84632812 11.74953125 14.10671875 10.7646875 14.375 9.75 C14.63023438 8.77546875 14.88546875 7.8009375 15.1484375 6.796875 C15.89598509 4.34162697 16.77123817 2.24382595 18 0 C19.98 0 21.96 0 24 0 C22.37828622 6.72335505 19.85519993 13.03976461 17.125 19.375 C16.79757813 20.15987793 16.47015625 20.94475586 16.1328125 21.75341797 C13.78240716 27.08888399 11.35722176 30.32138912 6 33 C4.00039988 33.039992 1.99952758 33.04346799 0 33 C0 31.35 0 29.7 0 28 C2.31 27.34 4.62 26.68 7 26 C8.11078967 22.71287513 7.91653286 20.99802113 6.6015625 17.8125 C6.28703125 17.03132813 5.9725 16.25015625 5.6484375 15.4453125 C5.31070313 14.63835937 4.97296875 13.83140625 4.625 13 C3.96932217 11.39666281 3.31560597 9.79252171 2.6640625 8.1875 C2.36967285 7.47980469 2.0752832 6.77210938 1.77197266 6.04296875 C1.0174805 4.04626085 0.47370728 2.07940557 0 0 Z " fill="#0E84FD" transform="translate(47,201)"/>
<path d="M0 0 C1.75570312 0.04060547 1.75570312 0.04060547 3.546875 0.08203125 C4.43890625 0.11683594 5.3309375 0.15164062 6.25 0.1875 C6.25 2.1675 6.25 4.1475 6.25 6.1875 C5.49074219 6.14109375 4.73148438 6.0946875 3.94921875 6.046875 C2.95535156 6.01078125 1.96148437 5.9746875 0.9375 5.9375 C-0.04863281 5.89109375 -1.03476562 5.8446875 -2.05078125 5.796875 C-4.829682 5.93771685 -4.829682 5.93771685 -6.58203125 7.890625 C-7.92325138 10.52820841 -8.15196006 12.23986731 -8.125 15.1875 C-8.13273437 16.033125 -8.14046875 16.87875 -8.1484375 17.75 C-7.65616526 20.76154784 -6.98886868 22.10616366 -4.75 24.1875 C-2.0113775 24.67090432 -2.0113775 24.67090432 0.9375 24.4375 C1.93136719 24.40140625 2.92523438 24.3653125 3.94921875 24.328125 C4.70847656 24.28171875 5.46773437 24.2353125 6.25 24.1875 C6.292721 25.85361905 6.29063832 27.52132885 6.25 29.1875 C4.38748319 31.05001681 1.4996451 30.48964039 -1 30.5625 C-7.28051736 30.52810505 -7.28051736 30.52810505 -10.9375 27.875 C-15.27066705 21.44995921 -15.52851389 16.90618039 -14.75 9.1875 C-12.18370979 2.13681606 -7.09947592 -0.21298428 0 0 Z " fill="#0C83FD" transform="translate(36.75,193.8125)"/>
<path d="M0 0 C1.65 0 3.3 0 5 0 C5.33 1.98 5.66 3.96 6 6 C8.64 6.33 11.28 6.66 14 7 C14 8.32 14 9.64 14 11 C11.03 11 8.06 11 5 11 C5.14029419 13.1462026 5.28738164 15.29196218 5.4375 17.4375 C5.51871094 18.63246094 5.59992188 19.82742187 5.68359375 21.05859375 C5.67656114 23.88570244 5.67656114 23.88570244 7 25 C9.32817964 25.36760731 11.6618385 25.70241581 14 26 C14 27.32 14 28.64 14 30 C12.22992286 30.08114106 10.45877902 30.13925505 8.6875 30.1875 C7.70136719 30.22230469 6.71523437 30.25710937 5.69921875 30.29296875 C3 30 3 30 1.15625 29 C-0.70292773 25.78412501 -0.31017485 22.41410785 -0.1875 18.8125 C-0.17396484 18.06291016 -0.16042969 17.31332031 -0.14648438 16.54101562 C-0.11118539 14.69370233 -0.05737917 12.84675934 0 11 C-2.31 11 -4.62 11 -7 11 C-7 9.35 -7 7.7 -7 6 C-4.69 6 -2.38 6 0 6 C0 4.02 0 2.04 0 0 Z " fill="#101010" transform="translate(184,195)"/>
<path d="M0 0 C2.5 1.375 2.5 1.375 4 4 C4.73430028 8.6046747 4.8440582 12.52289815 2.5 16.625 C-1.06427409 18.58535075 -4.0258928 18.76550426 -8 18 C-10.5 16.625 -10.5 16.625 -12 14 C-12.73430028 9.3953253 -12.8440582 5.47710185 -10.5 1.375 C-6.93572591 -0.58535075 -3.9741072 -0.76550426 0 0 Z " fill="#656A74" transform="translate(133,242)"/>
<path d="M0 0 C1.65 0 3.3 0 5 0 C5 0.99 5 1.98 5 3 C5.515625 2.505 6.03125 2.01 6.5625 1.5 C9.9238388 -0.56851618 12.11959911 -0.48505011 16 0 C18.4375 1.625 18.4375 1.625 20 4 C20.25 7.25 20.25 7.25 20 10 C18.02 10 16.04 10 14 10 C13.67 8.68 13.34 7.36 13 6 C9.70924004 6.37904208 9.70924004 6.37904208 7 8 C6.76321284 10.69235776 6.57801975 13.36498156 6.4375 16.0625 C6.39431641 16.82111328 6.35113281 17.57972656 6.30664062 18.36132812 C6.20026367 20.24065438 6.09960066 22.12030244 6 24 C4.02 24 2.04 24 0 24 C0 16.08 0 8.16 0 0 Z " fill="#1186FD" transform="translate(128,200)"/>
<path d="M0 0 C1.65 0 3.3 0 5 0 C5 0.99 5 1.98 5 3 C5.53625 2.505 6.0725 2.01 6.625 1.5 C9.71852796 -0.45380713 11.39369166 -0.51518691 15 0 C17.875 1.625 17.875 1.625 20 4 C20.3125 7.25 20.3125 7.25 20 10 C18.02 10 16.04 10 14 10 C13.67 8.68 13.34 7.36 13 6 C9.70924004 6.37904208 9.70924004 6.37904208 7 8 C6.76321284 10.69235776 6.57801975 13.36498156 6.4375 16.0625 C6.39431641 16.82111328 6.35113281 17.57972656 6.30664062 18.36132812 C6.20026367 20.24065438 6.09960066 22.12030244 6 24 C4.02 24 2.04 24 0 24 C0 16.08 0 8.16 0 0 Z " fill="#1A1A1A" transform="translate(232,201)"/>
<path d="M0 0 C2.4375 1.625 2.4375 1.625 4 4 C4 5.98 4 7.96 4 10 C-0.29 10 -4.58 10 -9 10 C-7.5 14 -7.5 14 -5 15 C-3.62657169 15.0689472 -2.24997898 15.08467708 -0.875 15.0625 C0.40375 15.041875 1.6825 15.02125 3 15 C3 15.99 3 16.98 3 18 C-6.96145401 18.77287143 -6.96145401 18.77287143 -10.6875 16 C-12.3699783 12.15433532 -12.94776539 9.1236108 -12 5 C-8.63554266 0.10624387 -5.8387112 -0.95542547 0 0 Z " fill="#656A73" transform="translate(193,242)"/>
<path d="M0 0 C1.32 0 2.64 0 4 0 C4 1.65 4 3.3 4 5 C5.98 4.34 7.96 3.68 10 3 C10.85167638 10.87800648 7.11084136 18.48625997 3 25 C2.01 24.67 1.02 24.34 0 24 C0 16.08 0 8.16 0 0 Z " fill="#F0F7F8" transform="translate(139,109)"/>
<path d="M0 0 C0.99 0 1.98 0 3 0 C3.33 2.64 3.66 5.28 4 8 C4.66 7.67 5.32 7.34 6 7 C9 6.8125 9 6.8125 12 7 C14 9 14 9 14.1953125 12.6953125 C14.182009 14.17200108 14.15814835 15.64862358 14.125 17.125 C14.11597656 17.87910156 14.10695312 18.63320312 14.09765625 19.41015625 C14.0740687 21.27357254 14.03819719 23.13682593 14 25 C13.01 25 12.02 25 11 25 C11 20.05 11 15.1 11 10 C8.69 10.66 6.38 11.32 4 12 C3.67 16.29 3.34 20.58 3 25 C2.01 25 1.02 25 0 25 C0 16.75 0 8.5 0 0 Z " fill="#5B616B" transform="translate(223,235)"/>
<path d="M0 0 C0.66 0 1.32 0 2 0 C1.67 3.96 1.34 7.92 1 12 C4.63 11.01 8.26 10.02 12 9 C12 9.66 12 10.32 12 11 C14.31 11 16.62 11 19 11 C19 13.31 19 15.62 19 18 C18.34 18 17.68 18 17 18 C17 16.35 17 14.7 17 13 C15.49759766 13.433125 15.49759766 13.433125 13.96484375 13.875 C12.62252803 14.25047293 11.28007251 14.62544631 9.9375 15 C9.28072266 15.19078125 8.62394531 15.3815625 7.94726562 15.578125 C3.5325982 16.79596429 -0.37941677 17.19227394 -5 17 C-4.53444296 10.59859065 -2.85288164 5.73230171 0 0 Z " fill="#D0E5F8" transform="translate(131,90)"/>
<path d="M0 0 C3 0.25 3 0.25 5 2.25 C5.30078125 4.52734375 5.30078125 4.52734375 5.3125 7.1875 C5.32925781 8.06277344 5.34601563 8.93804687 5.36328125 9.83984375 C5 12.25 5 12.25 3.640625 14.078125 C2 15.25 2 15.25 -0.5625 15.0625 C-3 14.25 -3 14.25 -5 12.25 C-5.265625 9.9375 -5.265625 9.9375 -5.25 7.25 C-5.25515625 6.363125 -5.2603125 5.47625 -5.265625 4.5625 C-4.83803703 0.83996944 -3.62712046 0.30226004 0 0 Z " fill="#F4F4F4" transform="translate(215,205.75)"/>
<path d="M0 0 C1.21236328 0.04060547 1.21236328 0.04060547 2.44921875 0.08203125 C3.06410156 0.11683594 3.67898437 0.15164062 4.3125 0.1875 C4.3125 0.8475 4.3125 1.5075 4.3125 2.1875 C2.0025 2.5175 -0.3075 2.8475 -2.6875 3.1875 C-3.0175 5.1675 -3.3475 7.1475 -3.6875 9.1875 C-1.3775 9.1875 0.9325 9.1875 3.3125 9.1875 C3.3125 10.1775 3.3125 11.1675 3.3125 12.1875 C0.6725 12.1875 -1.9675 12.1875 -4.6875 12.1875 C-4.6875 16.4775 -4.6875 20.7675 -4.6875 25.1875 C-5.6775 25.1875 -6.6675 25.1875 -7.6875 25.1875 C-7.6875 20.8975 -7.6875 16.6075 -7.6875 12.1875 C-9.3375 12.1875 -10.9875 12.1875 -12.6875 12.1875 C-12.6875 11.5275 -12.6875 10.8675 -12.6875 10.1875 C-11.0375 10.1875 -9.3875 10.1875 -7.6875 10.1875 C-7.749375 9.094375 -7.81125 8.00125 -7.875 6.875 C-7.6875 3.1875 -7.6875 3.1875 -6.46875 1.46875 C-4.16661524 -0.1871715 -2.80531917 -0.1219704 0 0 Z " fill="#6B717A" transform="translate(113.6875,234.8125)"/>
<path d="M0 0 C1.32 0.33 2.64 0.66 4 1 C4.66 0.67 5.32 0.34 6 0 C9 -0.1875 9 -0.1875 12 0 C14 2 14 2 14.1953125 5.6953125 C14.182009 7.17200108 14.15814835 8.64862358 14.125 10.125 C14.11597656 10.87910156 14.10695313 11.63320312 14.09765625 12.41015625 C14.0740687 14.27357254 14.03819719 16.13682593 14 18 C13.01 18 12.02 18 11 18 C11 13.05 11 8.1 11 3 C8.69 3.66 6.38 4.32 4 5 C3.67 9.29 3.34 13.58 3 18 C2.01 18 1.02 18 0 18 C0 12.06 0 6.12 0 0 Z " fill="#636973" transform="translate(81,242)"/>
<path d="M0 0 C1.32 0.33 2.64 0.66 4 1 C4 1.66 4 2.32 4 3 C4.66 3 5.32 3 6 3 C6 7.29 6 11.58 6 16 C15.24 16 24.48 16 34 16 C33.34 14.35 32.68 12.7 32 11 C32 10.01 32 9.02 32 8 C33.17561146 9.09463822 34.3402489 10.20107186 35.5 11.3125 C36.47453125 12.23482422 36.47453125 12.23482422 37.46875 13.17578125 C39 15 39 15 39 18 C34.17619198 18.0246519 29.35242033 18.04283693 24.52856445 18.05493164 C22.88630536 18.05997174 21.24405077 18.06680378 19.60180664 18.07543945 C17.24624521 18.08751926 14.89074291 18.09323139 12.53515625 18.09765625 C11.79660904 18.10281754 11.05806183 18.10797882 10.2971344 18.11329651 C8.53101912 18.1134925 6.76502854 18.06194719 5 18 C3.00383446 16.00383446 3.59016573 12.18298037 3.4375 9.4375 C3.37272461 8.37112305 3.37272461 8.37112305 3.30664062 7.28320312 C3.20028223 5.52238088 3.09961154 3.7612168 3 2 C2.01 1.67 1.02 1.34 0 1 C0 0.67 0 0.34 0 0 Z " fill="#ABD4FB" transform="translate(152,65)"/>
<path d="M0 0 C2.375 0.75 2.375 0.75 3.375 1.75 C3.578125 3.9296875 3.578125 3.9296875 3.625 6.625 C3.66367188 7.95144531 3.66367188 7.95144531 3.703125 9.3046875 C3.375 11.75 3.375 11.75 2.234375 13.5703125 C-0.40576396 15.24535865 -2.56875502 14.95374967 -5.625 14.75 C-5.70607583 12.81318839 -5.76422475 10.8754066 -5.8125 8.9375 C-5.84730469 7.85855469 -5.88210937 6.77960938 -5.91796875 5.66796875 C-5.625 2.75 -5.625 2.75 -4.27734375 0.84765625 C-2.625 -0.25 -2.625 -0.25 0 0 Z " fill="#F7FBFE" transform="translate(86.625,205.25)"/>
<path d="M0 0 C0.99 0 1.98 0 3 0 C3 1.65 3 3.3 3 5 C5.64 5 8.28 5 11 5 C11 5.66 11 6.32 11 7 C8.36 7 5.72 7 3 7 C3.33 10.96 3.66 14.92 4 19 C6.31 19.33 8.62 19.66 11 20 C11 20.99 11 21.98 11 23 C3.56852792 23.36548223 3.56852792 23.36548223 1.25 21.875 C-0.56032474 19.1595129 -0.29152862 17.03738715 -0.1875 13.8125 C-0.14689453 12.18248047 -0.14689453 12.18248047 -0.10546875 10.51953125 C-0.05326172 9.27236328 -0.05326172 9.27236328 0 8 C-1.65 8 -3.3 8 -5 8 C-5 7.01 -5 6.02 -5 5 C-3.35 5 -1.7 5 0 5 C0 3.35 0 1.7 0 0 Z " fill="#6A7079" transform="translate(165,237)"/>
<path d="M0 0 C2.4375 0.8125 2.4375 0.8125 4.4375 2.8125 C4.99550294 9.843337 4.99550294 9.843337 3.25 12.875 C1.4375 13.8125 1.4375 13.8125 -1.125 13.625 C-3.5625 12.8125 -3.5625 12.8125 -5.5625 10.8125 C-6.12050294 3.781663 -6.12050294 3.781663 -4.375 0.75 C-2.5625 -0.1875 -2.5625 -0.1875 0 0 Z " fill="#F7F7F8" transform="translate(129.5625,244.1875)"/>
<path d="M0 0 C11.22 0 22.44 0 34 0 C33.67 1.32 33.34 2.64 33 4 C32.34 4.33 31.68 4.66 31 5 C31 4.01 31 3.02 31 2 C21.1 2 11.2 2 1 2 C1 6.62 1 11.24 1 16 C-0.98 16.99 -0.98 16.99 -3 18 C-3.66 18.99 -4.32 19.98 -5 21 C-5.66 20.67 -6.32 20.34 -7 20 C-6.195625 19.2575 -5.39125 18.515 -4.5625 17.75 C-1.19156856 13.79983808 -1.31526767 9.62411446 -1.140625 4.609375 C-1 2 -1 2 0 0 Z " fill="#92C7F7" transform="translate(157,113)"/>
<path d="M0 0 C1.33332095 2.6666419 0.67102033 4.16680303 0 7 C1.50240234 6.69255859 1.50240234 6.69255859 3.03515625 6.37890625 C4.37758289 6.10666588 5.72003201 5.8345364 7.0625 5.5625 C7.71927734 5.42779297 8.37605469 5.29308594 9.05273438 5.15429688 C13.35535995 4.28529368 17.64917124 3.5827508 22 3 C21.25 10.625 21.25 10.625 19 14 C18.34 14 17.68 14 17 14 C17 12.35 17 10.7 17 9 C15.68 9 14.36 9 13 9 C13 10.65 13 12.3 13 14 C12.67 14 12.34 14 12 14 C11.67 12.35 11.34 10.7 11 9 C9.58344207 8.9727585 8.16672955 8.95349533 6.75 8.9375 C5.96109375 8.92589844 5.1721875 8.91429688 4.359375 8.90234375 C2.09308998 8.99614694 0.1711105 9.36758937 -2 10 C-2.1953125 3.9453125 -2.1953125 3.9453125 -2 2 C-1.34 1.34 -0.68 0.68 0 0 Z " fill="#5BAAF3" transform="translate(126,100)"/>
<path d="M0 0 C0 0.99 0 1.98 0 3 C-1.27875 3.12375 -2.5575 3.2475 -3.875 3.375 C-7.34790936 3.69042399 -7.34790936 3.69042399 -10 6 C-10.28602162 10.14509433 -10.28602162 10.14509433 -9 14 C-6.87423218 14.46651207 -6.87423218 14.46651207 -4.4375 14.625 C-3.61121094 14.69976562 -2.78492188 14.77453125 -1.93359375 14.8515625 C-1.29550781 14.90054687 -0.65742188 14.94953125 0 15 C0 15.99 0 16.98 0 18 C-8.98702969 18.7717869 -8.98702969 18.7717869 -12.625 16 C-14.39055695 12.14787575 -14.93918754 9.15925912 -14 5 C-10.28086625 -0.75865872 -6.26782143 -0.6144923 0 0 Z " fill="#6B7079" transform="translate(217,242)"/>
<path d="M0 0 C2.64 0 5.28 0 8 0 C8 5.28 8 10.56 8 16 C9.65 16 11.3 16 13 16 C13 16.66 13 17.32 13 18 C8.38 18 3.76 18 -1 18 C-1 17.34 -1 16.68 -1 16 C0.98 16 2.96 16 5 16 C5 11.38 5 6.76 5 2 C3.35 2 1.7 2 0 2 C0 1.34 0 0.68 0 0 Z " fill="#5A606B" transform="translate(62,242)"/>
<path d="M0 0 C0.66 0 1.32 0 2 0 C2 5.94 2 11.88 2 18 C2.66 18 3.32 18 4 18 C3.67 19.65 3.34 21.3 3 23 C2.34 23 1.68 23 1 23 C0.67 20.69 0.34 18.38 0 16 C-1.32 15.67 -2.64 15.34 -4 15 C-3.125 10.125 -3.125 10.125 -2 9 C-1.79395915 7.67218122 -1.6337041 6.33704105 -1.5 5 C-1.11111111 1.11111111 -1.11111111 1.11111111 0 0 Z " fill="#FDFCF7" transform="translate(137,73)"/>
<path d="M0 0 C4.90567888 -0.28301994 7.24528933 -0.16492205 11 3 C3.88610478 12.77904328 3.88610478 12.77904328 -1 15 C-0.34 13.68 0.32 12.36 1 11 C1.66 11 2.32 11 3 11 C2.74438677 8.6568787 2.40729228 6.32156597 2 4 C1.34 3.67 0.68 3.34 0 3 C0 2.01 0 1.02 0 0 Z " fill="#D6E8F9" transform="translate(175,117)"/>
<path d="M0 0 C0.99 0.33 1.98 0.66 3 1 C3 2.32 3 3.64 3 5 C3.99 4.67 4.98 4.34 6 4 C6 4.99 6 5.98 6 7 C6.99 7.33 7.98 7.66 9 8 C7.56445975 8.50559908 6.1264798 9.0042749 4.6875 9.5 C3.88699219 9.7784375 3.08648437 10.056875 2.26171875 10.34375 C0 11 0 11 -3 11 C-3.39253254 6.55129785 -2.15305957 3.85756507 0 0 Z " fill="#8FC5FA" transform="translate(135,91)"/>
<path d="M0 0 C0.66 0 1.32 0 2 0 C1.43393721 4.69023454 0.81462495 9.34500026 0 14 C0.66 14 1.32 14 2 14 C2 14.99 2 15.98 2 17 C-0.31 17 -2.62 17 -5 17 C-4.53444296 10.59859065 -2.85288164 5.73230171 0 0 Z " fill="#F3F8F6" transform="translate(131,90)"/>
<path d="M0 0 C2.875 -0.125 2.875 -0.125 6 0 C8 2 8 2 8.1953125 5.6953125 C8.182009 7.17200108 8.15814835 8.64862358 8.125 10.125 C8.11597656 10.87910156 8.10695312 11.63320312 8.09765625 12.41015625 C8.0740687 14.27357254 8.03819719 16.13682593 8 18 C7.01 18 6.02 18 5 18 C5 13.05 5 8.1 5 3 C3.35 3 1.7 3 0 3 C0 2.01 0 1.02 0 0 Z " fill="#6A6F78" transform="translate(229,242)"/>
<path d="M0 0 C0.66 0.33 1.32 0.66 2 1 C0.90033225 2.29549899 -0.20491801 3.58626071 -1.3125 4.875 C-1.92738281 5.59429687 -2.54226562 6.31359375 -3.17578125 7.0546875 C-5 9 -5 9 -8 11 C-6.63629701 8.00779732 -5.05091917 5.70973471 -2.875 3.25 C-2.33617187 2.63640625 -1.79734375 2.0228125 -1.2421875 1.390625 C-0.62730469 0.70226562 -0.62730469 0.70226562 0 0 Z M-10 11 C-9.34 11.33 -8.68 11.66 -8 12 C-9.65 13.32 -11.3 14.64 -13 16 C-11.125 12.125 -11.125 12.125 -10 11 Z M-15 16 C-14.34 16.33 -13.68 16.66 -13 17 C-17.29 21.29 -21.58 25.58 -26 30 C-26.66 29.67 -27.32 29.34 -28 29 C-19.738041 19.40546697 -19.738041 19.40546697 -15 16 Z " fill="#1374C2" transform="translate(187,118)"/>
<path d="M0 0 C0.66 0.33 1.32 0.66 2 1 C2.41064453 3.68383789 2.41064453 3.68383789 2.6328125 7.22265625 C2.71660156 8.48271484 2.80039063 9.74277344 2.88671875 11.04101562 C2.96635138 12.38149822 3.04577574 13.72199321 3.125 15.0625 C3.21136357 16.4069576 3.29859195 17.75135995 3.38671875 19.09570312 C3.59968555 22.39668849 3.80370339 25.69798811 4 29 C3.67 27.68 3.34 26.36 3 25 C2.34 25 1.68 25 1 25 C1 19.06 1 13.12 1 7 C-0.32 7.33 -1.64 7.66 -3 8 C-1.125 1.125 -1.125 1.125 0 0 Z " fill="#A5D1FC" transform="translate(138,66)"/>
<path d="M0 0 C2.00720923 0.28674418 4.0085944 0.61866701 6 1 C6.33 2.65 6.66 4.3 7 6 C3.7 6 0.4 6 -3 6 C-1.125 1.125 -1.125 1.125 0 0 Z " fill="#E2E3E4" transform="translate(187,244)"/>
<path d="M0 0 C3.29714793 0.32971479 4.6226839 0.6226839 7 3 C7 3.99 7 4.98 7 6 C3.7 6 0.4 6 -3 6 C-2 2 -2 2 0 0 Z " fill="#DDEDFE" transform="translate(109,204)"/>
<path d="M0 0 C1.32 0 2.64 0 4 0 C4 1.65 4 3.3 4 5 C4.66 5.33 5.32 5.66 6 6 C5.01 6.495 5.01 6.495 4 7 C3.34 6.67 2.68 6.34 2 6 C1.67 11.61 1.34 17.22 1 23 C1.66 23 2.32 23 3 23 C3 23.66 3 24.32 3 25 C2.01 24.67 1.02 24.34 0 24 C0 16.08 0 8.16 0 0 Z " fill="#AFD4F8" transform="translate(139,109)"/>
<path d="M0 0 C0 2.62113708 -0.31292445 4.50935112 -1 7 C-1.99 6.67 -2.98 6.34 -4 6 C-4.2475 6.78375 -4.495 7.5675 -4.75 8.375 C-6.1824048 11.38305008 -7.0309239 11.75490357 -10 13 C-10.33 13.66 -10.66 14.32 -11 15 C-11.99 14.67 -12.98 14.34 -14 14 C-13.34 14 -12.68 14 -12 14 C-11.66355469 13.17242187 -11.66355469 13.17242187 -11.3203125 12.328125 C-9.59614817 9.28788256 -7.37484178 7.18574327 -4.875 4.75 C-3.96492188 3.85796875 -3.05484375 2.9659375 -2.1171875 2.046875 C-1.41851562 1.37140625 -0.71984375 0.6959375 0 0 Z " fill="#A0CEF4" transform="translate(124,46)"/>
<path d="M0 0 C0.66 0 1.32 0 2 0 C2 5.94 2 11.88 2 18 C2.66 18 3.32 18 4 18 C3.67 19.65 3.34 21.3 3 23 C2.34 23 1.68 23 1 23 C0.63720544 21.71073008 0.28503302 20.41846728 -0.0625 19.125 C-0.25972656 18.40570313 -0.45695313 17.68640625 -0.66015625 16.9453125 C-1 15 -1 15 0 13 C0.07092842 10.7927077 0.08415025 8.58332548 0.0625 6.375 C0.05347656 5.18648438 0.04445312 3.99796875 0.03515625 2.7734375 C0.02355469 1.85820313 0.01195312 0.94296875 0 0 Z " fill="#F1F8FA" transform="translate(137,73)"/>
<path d="M0 0 C0.33 1.32 0.66 2.64 1 4 C3.97 4 6.94 4 10 4 C10 4.99 10 5.98 10 7 C7.36 7.33 4.72 7.66 2 8 C2 7.34 2 6.68 2 6 C1.34 6 0.68 6 0 6 C0 4.02 0 2.04 0 0 Z " fill="#E1EFF8" transform="translate(131,98)"/>
<path d="M0 0 C0.33 0.66 0.66 1.32 1 2 C-2.86364295 6.48717034 -6.74790208 10.87675353 -11 15 C-11.99 14.67 -12.98 14.34 -14 14 C-12.37660195 12.29115995 -10.70680947 10.62553283 -9 9 C-8.34 9 -7.68 9 -7 9 C-6.773125 8.443125 -6.54625 7.88625 -6.3125 7.3125 C-4.64103234 4.36753316 -2.44723648 2.31843456 0 0 Z " fill="#2480C9" transform="translate(132,61)"/>
<path d="M0 0 C0.43570313 0.37511719 0.87140625 0.75023438 1.3203125 1.13671875 C1.91585937 1.64847656 2.51140625 2.16023438 3.125 2.6875 C3.75921875 3.2340625 4.3934375 3.780625 5.046875 4.34375 C6.7972016 5.82802696 8.5798273 7.25833339 10.375 8.6875 C13 11 13 11 14 14 C13.34 14 12.68 14 12 14 C12 13.34 12 12.68 12 12 C10.576875 11.62875 10.576875 11.62875 9.125 11.25 C6 10 6 10 4.8125 7.9375 C4.544375 7.298125 4.27625 6.65875 4 6 C3.01 5.67 2.02 5.34 1 5 C0.67 3.35 0.34 1.7 0 0 Z " fill="#BEE2FA" transform="translate(119,122)"/>
<path d="M0 0 C1.33332095 2.6666419 0.67102033 4.16680303 0 7 C3.3 6.67 6.6 6.34 10 6 C7.57869669 8.42130331 6.19888623 8.52840504 2.875 9.125 C1.96492188 9.29257813 1.05484375 9.46015625 0.1171875 9.6328125 C-0.58148438 9.75398438 -1.28015625 9.87515625 -2 10 C-2.1953125 3.9453125 -2.1953125 3.9453125 -2 2 C-1.34 1.34 -0.68 0.68 0 0 Z " fill="#8BC4F4" transform="translate(126,100)"/>
<path d="M0 0 C0.33 0.66 0.66 1.32 1 2 C0.67 2.99 0.34 3.98 0 5 C-0.66 5 -1.32 5 -2 5 C-2.33 5.99 -2.66 6.98 -3 8 C-3.66 8 -4.32 8 -5 8 C-4.67 9.65 -4.34 11.3 -4 13 C-4.99 12.34 -5.98 11.68 -7 11 C-6.68232368 5.59950264 -3.80003673 3.47662935 0 0 Z " fill="#9ED0F5" transform="translate(81,89)"/>
<path d="M0 0 C0.8125 1.6875 0.8125 1.6875 1 4 C-1.40123201 7.03685225 -3.06049508 8.72858747 -6.8125 9.8125 C-7.534375 9.874375 -8.25625 9.93625 -9 10 C-8.06409496 8.8944811 -7.12620142 7.79064547 -6.1875 6.6875 C-5.66542969 6.07261719 -5.14335938 5.45773438 -4.60546875 4.82421875 C-3.12827531 3.14575321 -1.59960869 1.56117966 0 0 Z " fill="#A8D0F4" transform="translate(107,63)"/>
<path d="M0 0 C0.66 0.33 1.32 0.66 2 1 C1.40651139 2.77444057 0.79977999 4.54445553 0.1875 6.3125 C-0.31716797 7.79169922 -0.31716797 7.79169922 -0.83203125 9.30078125 C-1.94430967 11.87129759 -2.88208191 13.22191977 -5 15 C-4.31779879 9.40595005 -2.50643494 5.01286988 0 0 Z " fill="#98CAF6" transform="translate(147,117)"/>
<path d="M0 0 C0.66 0.33 1.32 0.66 2 1 C2 3.97 2 6.94 2 10 C1.67 9.01 1.34 8.02 1 7 C-0.32 7.33 -1.64 7.66 -3 8 C-1.125 1.125 -1.125 1.125 0 0 Z " fill="#9BCCF8" transform="translate(138,66)"/>
<path d="M0 0 C0.66 0 1.32 0 2 0 C2.49230769 7.26153846 2.49230769 7.26153846 0 11 C-0.66 11.66 -1.32 12.32 -2 13 C-2.23509196 8.18061476 -1.45184478 4.53701494 0 0 Z " fill="#ABD1F7" transform="translate(134,74)"/>
<path d="M0 0 C0.33 0.99 0.66 1.98 1 3 C-2.3 6.3 -5.6 9.6 -9 13 C-9.66 12.67 -10.32 12.34 -11 12 C-10.29875 11.319375 -9.5975 10.63875 -8.875 9.9375 C-5.72065663 6.79219487 -2.86065696 3.4111614 0 0 Z " fill="#1677C4" transform="translate(117,76)"/>
<path d="M0 0 C0 4.21206073 -1.86214912 6.62509685 -4.5 9.8125 C-6 11 -6 11 -9 11 C-8.34 9.68 -7.68 8.36 -7 7 C-6.34 7 -5.68 7 -5 7 C-4.731875 6.401875 -4.46375 5.80375 -4.1875 5.1875 C-3.01506533 3.02775192 -1.80630718 1.64209744 0 0 Z " fill="#A0CCF4" transform="translate(137,33)"/>
<path d="M0 0 C3.21524305 1.40844718 5.32183868 3.10344786 7.75 5.625 C8.67039063 6.57246094 8.67039063 6.57246094 9.609375 7.5390625 C10.29773438 8.26222656 10.29773438 8.26222656 11 9 C10.01 9.33 9.02 9.66 8 10 C6 9 6 9 4.6875 6.5625 C2.72713571 3.58565053 1.35337589 2.99694959 -2 2 C-1.34 1.34 -0.68 0.68 0 0 Z " fill="#94C8F7" transform="translate(140,31)"/>
<path d="M0 0 C1.65 0 3.3 0 5 0 C4.25 7.625 4.25 7.625 2 11 C1.34 11 0.68 11 0 11 C0 9.35 0 7.7 0 6 C0.99 6 1.98 6 3 6 C3.33 4.35 3.66 2.7 4 1 C2.68 0.67 1.36 0.34 0 0 Z " fill="#79B8F6" transform="translate(143,103)"/>
<path d="M0 0 C1.32 0 2.64 0 4 0 C3.67 1.65 3.34 3.3 3 5 C0.03 4.505 0.03 4.505 -3 4 C-3 3.34 -3 2.68 -3 2 C-2.01 2 -1.02 2 0 2 C0 1.34 0 0.68 0 0 Z " fill="#228CF8" transform="translate(143,104)"/>
<path d="M0 0 C-0.59861742 2.35171131 -1.26924352 4.6859378 -2 7 C-2.99 7.495 -2.99 7.495 -4 8 C-3.67 6.02 -3.34 4.04 -3 2 C-4.98 2 -6.96 2 -9 2 C-5.86501708 0.14223235 -3.62528568 -0.20140476 0 0 Z " fill="#72B3EF" transform="translate(159,94)"/>
<path d="M0 0 C0.66 0.33 1.32 0.66 2 1 C2 1.66 2 2.32 2 3 C1.01 3 0.02 3 -1 3 C-1 3.99 -1 4.98 -1 6 C-1.66 6 -2.32 6 -3 6 C-3 6.66 -3 7.32 -3 8 C-4.32 7.67 -5.64 7.34 -7 7 C-4.69 4.69 -2.38 2.38 0 0 Z " fill="#A5CCF3" transform="translate(89,81)"/>
<path d="M0 0 C2.31 0 4.62 0 7 0 C7 0.99 7 1.98 7 3 C4.36 3 1.72 3 -1 3 C-0.67 2.01 -0.34 1.02 0 0 Z " fill="#757A83" transform="translate(210,242)"/>
<path d="M0 0 C2.875 0.1875 2.875 0.1875 6 1 C7.25 3.3125 7.25 3.3125 8 6 C8.64822092 7.3423978 9.31198961 8.67755381 10 10 C2.51708428 3.84965831 2.51708428 3.84965831 0 0 Z " fill="#ACD2F7" transform="translate(97,122)"/>
<path d="M0 0 C0.99 0 1.98 0 3 0 C3 1.65 3 3.3 3 5 C1.35 5.33 -0.3 5.66 -2 6 C-1.34 4.02 -0.68 2.04 0 0 Z " fill="#F9FDFC" transform="translate(120,52)"/>
<path d="M0 0 C2.475 0.495 2.475 0.495 5 1 C5 1.99 5 2.98 5 4 C5.66 4 6.32 4 7 4 C7.33 5.32 7.66 6.64 8 8 C6.85073734 7.04578192 5.70569459 6.08647955 4.5625 5.125 C3.92441406 4.59132812 3.28632812 4.05765625 2.62890625 3.5078125 C1 2 1 2 0 0 Z " fill="#B5DAF7" transform="translate(122,147)"/>
<path d="M0 0 C2.97 0.495 2.97 0.495 6 1 C6 1.66 6 2.32 6 3 C3.36 3.33 0.72 3.66 -2 4 C-1.34 2.68 -0.68 1.36 0 0 Z " fill="#F5FBF1" transform="translate(94,102)"/>
<path d="M0 0 C2.31 0.66 4.62 1.32 7 2 C7.33 3.98 7.66 5.96 8 8 C6.85073734 7.04578192 5.70569459 6.08647955 4.5625 5.125 C3.92441406 4.59132813 3.28632812 4.05765625 2.62890625 3.5078125 C1 2 1 2 0 0 Z " fill="#AFD4FA" transform="translate(77,102)"/>
<path d="M0 0 C-0.99 1.485 -0.99 1.485 -2 3 C-4.97 2.505 -4.97 2.505 -8 2 C-6.14210462 -1.71579076 -3.44525918 -1.06921837 0 0 Z " fill="#B2D4FB" transform="translate(152,97)"/>
<path d="M0 0 C1.32 0.66 2.64 1.32 4 2 C1.03 4.475 1.03 4.475 -2 7 C-2.33 5.68 -2.66 4.36 -3 3 C-2.01 3.33 -1.02 3.66 0 4 C0 2.68 0 1.36 0 0 Z " fill="#BBDDF2" transform="translate(111,78)"/>
<path d="M0 0 C0.33 0.99 0.66 1.98 1 3 C0 4 0 4 -2.5625 4.0625 C-3.7690625 4.0315625 -3.7690625 4.0315625 -5 4 C-5 3.01 -5 2.02 -5 1 C-3.35 0.67 -1.7 0.34 0 0 Z " fill="#FBFAF0" transform="translate(94,97)"/>
<path d="M0 0 C1.98 1.65 3.96 3.3 6 5 C4.68 5.33 3.36 5.66 2 6 C2 5.34 2 4.68 2 4 C1.34 4 0.68 4 0 4 C0 2.68 0 1.36 0 0 Z " fill="#ADD8F8" transform="translate(153,43)"/>
<path d="M0 0 C2.64 0.33 5.28 0.66 8 1 C7.01 2.485 7.01 2.485 6 4 C4.125 3.6875 4.125 3.6875 2 3 C1.34 2.01 0.68 1.02 0 0 Z " fill="#9BCAF5" transform="translate(136,161)"/>
<path d="M0 0 C0.99 0.495 0.99 0.495 2 1 C2 1.66 2 2.32 2 3 C2.639375 3.28875 3.27875 3.5775 3.9375 3.875 C6 5 6 5 7 7 C5.35 6.67 3.7 6.34 2 6 C1.34 4.02 0.68 2.04 0 0 Z " fill="#93CCF3" transform="translate(99,101)"/>
<path d="M0 0 C1.65 0.33 3.3 0.66 5 1 C5 1.66 5 2.32 5 3 C3.02 3.33 1.04 3.66 -1 4 C-0.67 2.68 -0.34 1.36 0 0 Z " fill="#188CFA" transform="translate(134,97)"/>
<path d="M0 0 C0.99 0.33 1.98 0.66 3 1 C3 1.66 3 2.32 3 3 C2.01 3.33 1.02 3.66 0 4 C-0.33 4.99 -0.66 5.98 -1 7 C-0.34 7.33 0.32 7.66 1 8 C0.01 8 -0.98 8 -2 8 C-2.20086443 4.28400809 -2.1519437 3.22791555 0 0 Z " fill="#67B1FA" transform="translate(134,94)"/>
</svg>
